<?xml version="1.0" encoding="UTF-8"?>
<svg width="48px" height="48px" viewBox="0 0 48 48" version="1.1" xmlns="http://www.w3.org/2000/svg" xmlns:xlink="http://www.w3.org/1999/xlink">
    <!-- Generator: Sketch 47.1 (45422) - http://www.bohemiancoding.com/sketch -->
    <title>pulse/ic_launcher</title>
    <desc>Created with Sketch.</desc>
    <defs>
        <rect id="path-1" x="2" y="2" width="44" height="44" rx="22"></rect>
        <filter x="-4.5%" y="-2.3%" width="109.1%" height="109.1%" filterUnits="objectBoundingBox" id="filter-3">
            <feOffset dx="0" dy="1" in="SourceAlpha" result="shadowOffsetOuter1"></feOffset>
            <feGaussianBlur stdDeviation="0.5" in="shadowOffsetOuter1" result="shadowBlurOuter1"></feGaussianBlur>
            <feColorMatrix values="0 0 0 0 0   0 0 0 0 0   0 0 0 0 0  0 0 0 0.2 0" type="matrix" in="shadowBlurOuter1"></feColorMatrix>
        </filter>
        <rect id="path-4" x="0" y="0" width="48" height="48"></rect>
        <path d="M23.0520844,32.9505129 L35.8148148,32.9505129 C36.3670996,32.9505129 36.8148148,32.5027976 36.8148148,31.9505129 L36.8148148,31.9505129 L36.8148148,20.2097722 C36.8148148,19.6574874 36.3670996,19.2097722 35.8148148,19.2097722 L20.1851852,19.2097722 L20.1851852,19.2097722 C19.6329004,19.2097722 19.1851852,19.6574874 19.1851852,20.2097722 L19.1851852,20.2097722 L19.1851852,29.6872051 L19.1851852,36.8533532 L23.0520844,32.9505129 Z" id="path-6"></path>
        <filter x="-5.7%" y="-5.7%" width="122.7%" height="122.7%" filterUnits="objectBoundingBox" id="filter-7">
            <feOffset dx="1" dy="1" in="SourceAlpha" result="shadowOffsetOuter1"></feOffset>
            <feGaussianBlur stdDeviation="0.5" in="shadowOffsetOuter1" result="shadowBlurOuter1"></feGaussianBlur>
            <feColorMatrix values="0 0 0 0 0   0 0 0 0 0   0 0 0 0 0  0 0 0 0.2 0" type="matrix" in="shadowBlurOuter1"></feColorMatrix>
        </filter>
        <rect id="path-8" x="2" y="2" width="44" height="44" rx="22"></rect>
    </defs>
    <g id="Pulse" stroke="none" stroke-width="1" fill="none" fill-rule="evenodd">
        <g id="ic_launcher">
            <mask id="mask-2" fill="white">
                <use xlink:href="#path-1"></use>
            </mask>
            <g id="mask">
                <use fill="black" fill-opacity="1" filter="url(#filter-3)" xlink:href="#path-1"></use>
                <use fill="#FFFFFF" fill-rule="evenodd" xlink:href="#path-1"></use>
            </g>
            <g id="ic_launcher_background" mask="url(#mask-2)">
                <mask id="mask-5" fill="white">
                    <use xlink:href="#path-4"></use>
                </mask>
                <use id="dark-background" fill="#08776E" fill-rule="evenodd" transform="translate(24.000000, 24.000000) scale(1, -1) translate(-24.000000, -24.000000) " xlink:href="#path-4"></use>
                <polygon id="light-background" fill="#009688" fill-rule="evenodd" mask="url(#mask-5)" transform="translate(24.000000, 24.000000) scale(1, -1) translate(-24.000000, -24.000000) " points="0 0 48 48 48 0"></polygon>
                <polygon id="light-line" fill="#32AA9F" fill-rule="evenodd" mask="url(#mask-5)" transform="translate(24.000000, 24.000000) scale(1, -1) translate(-24.000000, -24.000000) " points="0 0 48 48 48 47.5624457 0.444777406 0"></polygon>
                <polygon id="dark-line" fill="#0B665E" fill-rule="evenodd" mask="url(#mask-5)" transform="translate(24.000000, 24.000000) scale(1, -1) translate(-24.000000, -24.000000) " points="0 0 48 48 47.5608046 48 0 0.442226531"></polygon>
            </g>
            <g id="ic_launcher_foreground" mask="url(#mask-2)">
                <g transform="translate(-4.000000, -4.000000)">
                    <polygon id="shadow" fill-opacity="0.1" fill="#000000" fill-rule="evenodd" points="19.1768745 36.984439 38.35063 56 56 56 56 39.4101448 36.2568948 19.5893581 23.4329034 27.752919"></polygon>
                    <g id="message-bubble" fill="none">
                        <use fill="black" fill-opacity="1" filter="url(#filter-7)" xlink:href="#path-6"></use>
                        <use fill="#FFFFFF" fill-rule="evenodd" xlink:href="#path-6"></use>
                    </g>
                    <g id="lines" stroke-width="1" fill="none" fill-rule="evenodd" transform="translate(21.777778, 20.742647)">
                        <rect id="bottom" fill-opacity="0.2" fill="#000000" x="0" y="7.68140267" width="12.4444444" height="1.94444444"></rect>
                        <rect id="middle" fill-opacity="0.2" fill="#000000" x="0" y="4.38474106" width="12.4444444" height="1.94444444"></rect>
                        <rect id="top" fill-opacity="0.2" fill="#000000" x="0" y="1.0618139" width="12.4444444" height="1.94444444"></rect>
                        <polygon id="line-clip" fill="#FFFFFF" points="2.67272364 10.7430053 13.2705996 0.226552407 13.2705996 10.4193384"></polygon>
                    </g>
                </g>
            </g>
            <mask id="mask-9" fill="white">
                <use xlink:href="#path-8"></use>
            </mask>
            <rect stroke-opacity="0.1" stroke="#FFFFFF" stroke-width="0.3" x="2.15" y="2.15" width="43.7" height="43.7" rx="21.85"></rect>
        </g>
    </g>
</svg>